<?xml version="1.0" encoding="UTF-8"?>
<!DOCTYPE svg PUBLIC "-//W3C//DTD SVG 1.1//EN" "http://www.w3.org/Graphics/SVG/1.1/DTD/svg11.dtd">
<!-- Creator: CorelDRAW 2020 (64-Bit Evaluation Version) -->
<svg xmlns="http://www.w3.org/2000/svg" xml:space="preserve" width="8.5in" height="11in" version="1.1" style="shape-rendering:geometricPrecision; text-rendering:geometricPrecision; image-rendering:optimizeQuality; fill-rule:evenodd; clip-rule:evenodd"
viewBox="0 0 8500 11000"
 xmlns:xlink="http://www.w3.org/1999/xlink"
 xmlns:xodm="http://www.corel.com/coreldraw/odm/2003">
 <defs>
  <style type="text/css">
   <![CDATA[
    .str0 {stroke:black;stroke-width:3;stroke-miterlimit:2.61313}
    .fil5 {fill:#373435}
    .fil7 {fill:#201E1E}
    .fil8 {fill:black}
    .fil0 {fill:#020202}
    .fil4 {fill:#212121}
    .fil2 {fill:#254C2A}
    .fil1 {fill:#777777}
    .fil3 {fill:#FEFEFE}
    .fil6 {fill:#373435;fill-rule:nonzero}
   ]]>
  </style>
 </defs>
 <g id="Layer_x0020_1">
  <metadata id="CorelCorpID_0Corel-Layer"/>
  <path class="fil0" d="M1762.6 5837.17l33.39 132.04c144.55,-2.63 191.5,33.96 163.35,193.81 178.14,198.19 16.7,173.66 147.22,271.44 13.81,-13.87 5.87,0.56 20.87,-29.15l97.44 -280.91 -105.15 -42.02c0.39,-2.93 1.7,-9.43 3.7,-18.6l-19.63 -11.73 -24.57 -67.06c-1,2.82 -2.04,5.69 -3.15,8.63 -14.94,-16 -108.9,-177.2 -260.89,-172.02 -51.59,1.77 -17.19,-9.33 -52.59,15.57zm2156.68 -179.24c19.33,46.67 -20.88,-9.56 43.57,38.61 28.8,21.52 1.94,-2.94 21.49,15.3 14.72,13.73 37.76,55.28 49.87,75.39 5.81,-1.15 23.05,-6.27 26.72,-6.31l51 5.94c4.4,0.21 9.6,1.83 14,1.74 41.42,-0.78 12.61,6.32 45.99,-10.45 -37.81,-165.01 -78.92,80.61 -111.5,-95.03 3.43,-1.91 9.81,-6.79 11.23,-3.57l23.78 -8.86c34.27,-18.88 22.71,-2.2 47.37,-36.84 -30.67,-31 -20.42,-50.07 -75.55,-16.49l-31.44 23.73c-79.13,40.37 -80.72,3.99 -116.53,16.84zm193.04 -275.55c11.57,108.54 20.59,36.59 37.9,113.37l24.93 98.1c1.57,3.37 5.04,9.41 6.37,12.09 1.33,2.75 4.7,8.03 6.21,12.39 -51.78,71.18 -35.25,-4.05 -36.7,85.16 40.63,3.15 -37.89,18.08 26.31,-1.98 53.81,-16.85 121.9,-50.8 71.96,-119.17l-46.48 -34.61c30.09,-47.66 58.72,-83.7 61.35,-139.62l-72.06 -21.57c3.75,-129.82 56.33,-47.97 74.04,-148.07l-133.63 121.17c-2.77,3.4 -7.68,8.65 -10.01,11.39 -2.34,2.77 -7.19,7.24 -10.19,11.36zm-79.4 147.5l47.48 10.04 9.97 -64.98c-44.01,3.49 -58.13,-18.07 -57.46,54.95zm-1332.26 674.43c-54.16,10.07 -79.66,24.53 -135.34,-10.82l-39.07 36.19 -17.23 159.67 -14.17 69.51 213.48 -6.94c50.48,-74.46 46.67,-121.65 76.39,-203.1 5.14,-14.09 10.74,-25 16.78,-33.87 -11.28,0.89 -20.28,1.03 -26.49,0.29 -14.28,-1.7 -40.65,-5.62 -74.34,-10.93zm509.93 -71.04c1.9,15.08 2.8,32.12 2.55,51.35 -1.56,120.21 24.41,29.75 66.53,130.35 13.95,33.33 11.24,46.54 11.31,85.48l485.29 22.99c75.85,-137.5 245.52,-242.02 419.44,-301.97 108.4,-37.36 206.62,-9.74 229.12,94.54 27.35,126.81 -46.31,189.12 -100.42,247.28l135.11 13.79c119.47,-130.22 -89.54,-72.15 227.63,-300.91 54.01,-38.96 113.26,-74.46 186.07,-43.44 91.04,38.8 67.55,112.38 60.3,201.62 176.89,92.63 23.23,334.97 123.36,343.99 47.19,4.24 38.89,-60.44 58.83,-139.12 95.53,-376.87 544.58,-388.46 637.99,-265.28 63.04,83.15 18.62,258.04 -60.48,303.45 -75.52,26.8 -114.48,-15.64 -219.88,-13.4 -33.2,44.59 -49.1,81.65 -56.15,148.39 270.22,-52.96 285.29,31.07 345.59,121.38 27.47,-31.73 131.33,-309.2 144.8,-360.72 43.58,-166.58 56.47,-96 248.16,-264.42 -61.05,-17.08 -95.51,-22.92 -143.47,-49.68 -39.32,-21.94 -86.33,-67.37 -116.52,-79.56 -66.94,-27.05 -60.04,20.28 -117.21,-31.28 -18.63,-16.8 -54.4,-87.15 -78.05,-115.19l-149.89 24.36 42.78 -66.19c21.31,-44.51 -12.44,-13.86 16.37,-64.06l-56 -13.24c25.33,66.71 34.14,-2.99 21.33,67.43 -11.51,63.34 -37.84,50.28 -76.4,54.81 -12.12,-36.95 10.03,-157.38 4.98,-201.47l-64.31 -13.23c0.25,53.61 22.65,96.49 27.7,169.23 -192.96,-117.6 -129.83,-45.57 -230.06,-68.24 -18.7,-40.6 -34.43,-127.83 -51.71,-140.52 -64.15,-47.08 -16.3,43.97 -148.8,14.22 -38.93,-118.29 41.73,-197.56 52.02,-281.86 13.37,-109.61 -56.69,-128.19 -54.67,-287.4 1.13,-87.41 46.44,-201.74 91.41,-271.02 61.23,-94.28 132.09,-92.33 170.83,-222.65 -132.57,36.02 -19.61,102.37 -202.53,112.35 19.93,-108.91 82.83,-138.51 65.65,-226.09 -13.48,-68.8 -72.69,-116.2 -101.25,-194.49 0.45,-41.28 247.68,-256.81 167.64,-671.37 -32.01,-46.08 -89.04,-73.73 -139.84,-114 -16.96,407.28 -88.6,310.43 -172.78,515.31 -26.37,64.18 -31.79,102.28 -79.72,149.19 -186.95,-57.75 -111.19,-274.31 -139.42,-352.26 -32.56,-89.88 -70.39,-70.32 7.69,-162.29 46.26,-54.48 88.78,-80.45 34.87,-144.89l-39.96 5.07c-4.93,90.42 -43.09,159.94 -124.08,155.7 -30.13,-40.61 -3.18,4.41 -22.43,-49.19l-12.33 -39.05c-64.61,14.96 -122.01,22.52 -163.06,-23.65 -192.76,-40.28 -221.65,-179.49 -388.75,-250.4 -122.96,1.09 -122.62,78.5 -252.61,18 -80.11,-37.28 -140.77,-84.72 -167.18,-166.84l-51.17 -0.66c-10.48,127.97 101.26,200.02 208.41,245.78 162.44,69.36 132.82,-122.29 349.49,22.37 169.32,113.02 308.95,328.88 340.98,353.94 63.23,49.45 95.09,39.56 116.51,130.92 60.39,257.48 96.37,153.31 104.13,572.06 3.26,175.09 -56.32,-12.75 -21.62,390.72 16.07,186.67 29.12,430.89 -24.04,612.61 -167.34,22.6 -33.87,-61.86 -161.29,-126.79 -2.7,3.8 -5.01,5.92 -5.83,12.77l-5.98 115.2 -59.79 25.65c-3.15,1.35 -9.47,3.79 -13.94,6.23 23.64,44.17 -8.94,0.85 28.55,28.74 89.83,66.86 -59.1,-36.72 23.28,15.35l25.46 13.46c-54.79,30.76 -44.01,25.37 -52.1,50.84 66.23,41.62 59.2,-12.27 50.33,90.78 -11.68,135.9 -106.21,103.04 -161.39,169.4 -44.14,53.13 -7.15,38.23 -73.05,88.99 -179.96,138.59 -263.04,74.63 -510.54,58.87 -60.22,-127.59 5.89,-36.65 -118.8,-123.3 -39.74,-657.1 631.91,-690.9 580.62,-1300.72 -16.96,-201.58 29.58,-252.52 170.41,-305.67 68.47,-25.85 72.95,-15.93 76.32,-87.72 -68.09,-28.56 -48.08,32.73 -119.44,-24.06 45.37,-96.73 189.37,27.63 223.86,-140.81 -110.31,-35.77 -19.05,20.94 -135.26,44.94 -37.13,-84.65 19.14,-71.8 -9.83,-166.25 -48.64,25.59 -185.27,321.19 -355.6,217.83 -103.16,-79.74 -70.26,-277.37 -148.66,-308.58 -38.64,139.94 38.83,124.57 6.05,252.56 -163.3,24.68 -180.09,-167.13 -288.55,-228.1 5.64,75.36 25.15,78.3 34.1,156.09 -66.19,-43.07 -79.36,-99.24 -149.62,-98.23 31.63,77.54 264.7,328.41 295.8,350.39 70.77,50.03 103.09,25.09 146.37,96.71 4.75,57.06 -46.91,137.67 -81.39,163.96 -83.33,63.54 -162.11,0.62 -225.49,-8.17 -60.68,-8.44 -109.96,40.48 -210.33,40.54 -197.94,0.13 -659.23,-101.89 -801.62,-12.03 -167.22,105.56 -118.95,258.35 -168.89,423.07 183.33,-41.62 77.22,-233.88 385.18,-91.18 36.87,-101.93 41.26,-148.97 162.8,-132.06 -34.01,50.85 -81.55,59.28 -53.66,162.96 116.18,22.02 177.42,-64.44 233.3,-121.12 124.02,-125.83 127.03,-84.33 230.12,-3.54 90.71,6.59 126.68,-36.93 199.79,1.73 36.56,19.33 269.8,333.69 281.97,149.31 3.87,-58.63 -18.31,-55.85 15.12,-95.54 45.33,60.81 86.53,162.21 -1.49,226.38 -82.44,60.13 -162.64,-9.96 -235.02,-40.67 39.99,105.27 135.67,68.12 157.72,203.94 -99.69,146.93 -181.8,-29.81 -283.9,-73.6 1.9,151.67 42.58,60.61 -10.8,231.33 -30.94,99.06 22.18,123.85 21.68,209.35 -0.65,106.62 -72.28,55.4 -46.43,197.87 23.27,128.29 37.14,95.91 -9.48,237.35 -11.57,3.44 -22.25,6.45 -32.2,9.05l0 0 -0.64 0.16c-3.63,0.94 -7.15,1.83 -10.59,2.66 -26.77,6.71 -98.9,24.64 -185.32,45.03z"/>
  <path class="fil1" d="M3919.28 5657.93c35.81,-12.85 37.4,23.53 116.53,-16.84l31.44 -23.73c55.13,-33.59 44.88,-14.51 75.55,16.49 -24.65,34.64 -13.1,17.96 -47.37,36.84l-23.78 8.86c-1.42,-3.22 -7.8,1.66 -11.23,3.57 32.57,175.64 73.69,-69.98 111.5,95.03 -33.38,16.78 -4.57,9.67 -45.99,10.45 -4.39,0.09 -9.6,-1.53 -14,-1.74l-51 -5.94c-3.67,0.04 -20.91,5.15 -26.72,6.31 -12.11,-20.11 -35.15,-61.66 -49.87,-75.39 -19.54,-18.24 7.31,6.22 -21.49,-15.3 -64.45,-48.17 -24.24,8.06 -43.57,-38.61zm-512.14 427.48l0 0 -0.64 0.16c-3.63,0.94 -7.15,1.83 -10.59,2.66 -78.46,19.66 -546.68,135.81 -620.92,127 -81.07,-9.63 -550.13,-90.83 -550.13,-90.83l-121.07 -72.35 -24.57 -67.06c-1,2.82 -2.04,5.69 -3.15,8.63 -14.94,-16 -108.9,-177.2 -260.89,-172.02 -51.59,1.77 -17.19,-9.33 -52.59,15.57 -1.78,-4.65 -3.13,-10.79 -3.89,-14.41l-8.77 -46.35c-2.28,-18.56 -2.81,-46.5 -3.74,-65.99 -20.41,-433.07 56.83,-436.16 277.35,-681.55 92.03,-102.4 174.04,-189.8 262.83,-291.95 96.5,-111.07 167.9,-179.08 252.28,-302.69l425.43 -696.65c53.43,-90.32 154.63,-280.45 212.11,-348 85.39,-100.43 193.94,-161.62 338.62,-196.1 -10.48,127.97 101.26,200.02 208.41,245.78 162.44,69.36 132.82,-122.29 349.49,22.37 169.32,113.02 308.95,328.88 340.98,353.94 63.23,49.45 95.09,39.56 116.51,130.92 60.39,257.48 96.37,153.31 104.13,572.06 3.26,175.09 -56.32,-12.75 -21.62,390.72 16.07,186.67 29.12,430.89 -24.04,612.61 -167.34,22.6 -33.87,-61.86 -161.29,-126.79 -2.7,3.8 -5.01,5.92 -5.83,12.77l-5.98 115.2 -59.79 25.65c-3.15,1.35 -9.47,3.79 -13.94,6.23 23.64,44.17 -8.94,0.85 28.55,28.74 89.83,66.86 -59.1,-36.72 23.28,15.35l25.46 13.46c-54.79,30.76 -44.01,25.37 -52.1,50.84 66.23,41.62 59.2,-12.27 50.33,90.78 -11.68,135.9 -106.21,103.04 -161.39,169.4 -44.14,53.13 -7.15,38.23 -73.05,88.99 -179.96,138.59 -263.04,74.63 -510.54,58.87 -60.22,-127.59 5.89,-36.65 -118.8,-123.3 -39.74,-657.1 631.91,-690.9 580.62,-1300.72 -16.96,-201.58 29.58,-252.52 170.41,-305.67 68.47,-25.85 72.95,-15.93 76.32,-87.72 -68.09,-28.56 -48.08,32.73 -119.44,-24.06 45.37,-96.73 189.37,27.63 223.86,-140.81 -110.31,-35.77 -19.05,20.94 -135.26,44.94 -37.13,-84.65 19.14,-71.8 -9.83,-166.25 -48.64,25.59 -185.27,321.19 -355.6,217.83 -103.16,-79.74 -70.26,-277.37 -148.66,-308.58 -38.64,139.94 38.83,124.57 6.05,252.56 -163.3,24.68 -180.09,-167.13 -288.55,-228.1 5.64,75.36 25.15,78.3 34.1,156.09 -66.19,-43.07 -79.36,-99.24 -149.62,-98.23 31.63,77.54 264.7,328.41 295.8,350.39 70.77,50.03 103.09,25.09 146.37,96.71 4.75,57.06 -46.91,137.67 -81.39,163.96 -83.33,63.54 -162.11,0.62 -225.49,-8.17 -60.68,-8.44 -109.96,40.48 -210.33,40.54 -197.94,0.13 -659.23,-101.89 -801.62,-12.03 -167.22,105.56 -118.95,258.35 -168.89,423.07 183.33,-41.62 77.22,-233.88 385.18,-91.18 36.87,-101.93 41.26,-148.97 162.8,-132.06 -34.01,50.85 -81.55,59.28 -53.66,162.96 116.18,22.02 177.42,-64.44 233.3,-121.12 124.02,-125.83 127.03,-84.33 230.12,-3.54 90.71,6.59 126.68,-36.93 199.79,1.73 36.56,19.33 269.8,333.69 281.97,149.31 3.87,-58.63 -18.31,-55.85 15.12,-95.54 45.33,60.81 86.53,162.21 -1.49,226.38 -82.44,60.13 -162.64,-9.96 -235.02,-40.67 39.99,105.27 135.67,68.12 157.72,203.94 -99.69,146.93 -181.8,-29.81 -283.9,-73.6 1.9,151.67 42.58,60.61 -10.8,231.33 -30.94,99.06 22.18,123.85 21.68,209.35 -0.65,106.62 -72.28,55.4 -46.43,197.87 23.27,128.29 37.14,95.91 -9.48,237.35 -11.57,3.44 -22.25,6.45 -32.2,9.05zm625.78 -555.53c-0.68,-73.02 13.44,-51.46 57.46,-54.95l-9.97 64.98 -47.48 -10.04zm351.29 -45.57c-9.21,51.49 3.04,9.65 -34.24,26.79 -37.59,-56.34 -30.96,-42.88 21.57,-71.52 15.56,31.27 20.77,-0.46 12.67,44.74zm-271.89 -101.93c3,-4.12 7.85,-8.59 10.19,-11.36 2.33,-2.74 7.24,-7.99 10.01,-11.39l133.63 -121.17c-17.7,100.1 -70.29,18.25 -74.04,148.07l72.06 21.57c-2.63,55.92 -31.26,91.96 -61.35,139.62l46.48 34.61c49.94,68.37 -18.15,102.31 -71.96,119.17 -64.2,20.07 14.32,5.13 -26.31,1.98 1.45,-89.2 -15.08,-13.98 36.7,-85.16 -1.5,-4.36 -4.87,-9.64 -6.21,-12.39 -1.33,-2.68 -4.8,-8.72 -6.37,-12.09l-24.93 -98.1c-17.3,-76.77 -26.33,-4.83 -37.9,-113.37z"/>
  <path class="fil1" d="M4684.11 2593.59c24.45,-4.76 143.69,121.41 193.7,159.8 50.62,38.87 189.25,121.46 272.79,143.08 373.76,96.7 780.56,-314.61 912.86,-671.78 45.51,-122.82 36.86,-232.32 26.11,-360.26 -9.61,-114.49 -56.36,-281.19 -30.86,-326.47 -63.67,-353.09 -835.13,-1316.82 -1355.34,-765.63 -191.06,202.43 -302.61,574.43 -336.02,927.75 -31.14,329.6 16.32,411.14 178.57,706.96 51.36,93.65 54.53,133.39 138.18,186.54z"/>
  <path class="fil1" d="M6280.67 4602.67c62.94,89.43 262.35,217.41 478,234.44 555.04,43.88 646.37,-393.42 715.26,-819.81 53,-327.96 0.75,-604.74 13.53,-669.34 8.43,-42.59 -0.77,-17.2 14.87,-40.72 -122.8,-482.21 -799.31,-1023.86 -1254.89,-445.38 -470.5,597.41 -135.94,1635.91 33.24,1740.8z"/>
  <path class="fil1" d="M2687.08 2578.91c20.84,-9.12 68.88,61.17 195.39,123.23 242.4,118.88 671.96,176.55 864.32,-91.87 158.17,-220.73 282.61,-552.7 303.03,-836.58 4.9,-68.01 -12.59,-301.01 -4.19,-315.22 -20.11,-100.36 -162,-292.41 -228.2,-346.06 -175.17,-142 -300.19,-95.26 -496.33,-366.52 -191.87,-265.35 -358.42,-143.61 -527.59,54.02 -317.26,370.65 -381.72,849.91 -275.82,1366.45 21.73,106.03 76.89,290.45 141.72,380.61 14.72,20.5 12.78,16.98 27.67,31.94z"/>
  <path class="fil1" d="M1199 3747.87c27.32,-8.59 -25.23,-31.81 65.19,54.7 169.05,161.73 626.54,493.07 841.18,300.44 82.33,-73.89 193.04,-352.67 233.28,-474.81 94.05,-285.39 52.08,-419.08 67.86,-583.98 6.94,-72.48 -27.65,-29.5 22.41,-61.28 -14.76,-99.76 -120.08,-263.9 -174.05,-344.34 -149.37,-222.71 -334.31,-382.33 -600.19,-475.87 -181.34,-63.81 -277.84,-103.82 -399.17,18.02 -203.63,204.5 -417.39,819.8 -244.37,1222.79 27.5,64.02 54.84,130.22 80.21,182.01 54.78,111.83 38.61,126.39 107.65,162.33z"/>
  <path class="fil1" d="M5511.86 5852.45l-28.65 7.81 11.7 -25.9c6.14,6.15 11.98,12.31 16.94,18.09zm40.43 37.07c-13.85,-3.48 -23.8,-8.3 -25.83,-15.04l-31.11 -6.89c25.83,68.13 38.35,-2.87 21.32,68.85 -15.31,64.51 -44.3,51.06 -87.67,55.48 -12.17,-37.73 17.24,-160.37 13.27,-205.35l-71.53 -13.81c-1.76,54.64 21.69,98.47 24.57,172.65 -211.66,-120.87 -143.69,-47.12 -255.09,-70.74 -19.39,-41.48 -33.68,-130.48 -52.56,-143.5 -70.06,-48.31 -19.94,44.74 -167.21,13.73 -39.09,-120.78 54.29,-201.17 69.02,-287.04 19.16,-111.66 -58.61,-130.96 -50.26,-293.24 4.6,-89.09 59.72,-205.41 112.73,-275.8 72.18,-95.79 151.48,-93.44 199.86,-226.08 -149.88,36.03 -25.87,104.25 -231.15,113.48 26.48,-110.91 98.07,-140.76 82.17,-230.12 -12.48,-70.19 -76.98,-118.83 -105.99,-198.77 2.09,-42.07 287.24,-260.51 213.41,-683.5 109.54,77 292.17,384.44 367.29,540.24 45.88,95.19 92.74,214.25 138.85,308.46 38.93,79.49 103.85,194.67 152.58,282.49 101.46,182.9 610.28,996.04 614.22,1146.45 -28.83,29.34 -15.4,-27 -24.08,67.56 -7.72,84.13 15.35,67.78 -15.31,238.61 -116.25,-36.01 -61.15,-76.64 -221.78,-74.28 -53.83,73.64 -38.77,6.56 -67.43,99.81 -67.73,-17.73 -106.11,-23.85 -158.81,-51.37 -43.2,-22.57 -94.13,-69.12 -127.48,-81.7 -73.95,-27.92 -68.03,20.36 -130.1,-32.49 -20.22,-17.22 -57.6,-89.12 -83.03,-117.83l-168.83 24.07 50.44 -67.25c24.07,-42.61 -9.04,-17.59 15.51,-57.07z"/>
  <path class="fil2" d="M6666.24 6573.29c35.51,-119.16 327.98,19.25 367.57,75.25 89.96,127.24 -238.05,251.58 -329.27,291.75 8.84,-104.93 69.39,-206.37 47.71,-311.45 -75.24,-33.78 -119.18,55.73 -86.02,-55.55zm-170.8 485.75c29.4,99.7 73.66,48.37 41.81,188.7 -21.48,94.64 -52.78,166.73 -3.25,237.11 117.39,-5.31 41.2,-139.05 118.88,-262.13 118.11,73.28 364.59,331.2 533.71,356.72 5.73,-161.02 -123.71,-198.86 -214.04,-283.83 -76.36,-71.81 -203.03,-176.73 -239.73,-259.95 131.49,-122.31 566.35,-165.36 453.39,-441.35 -63.63,-155.43 -561.31,-382.19 -597.7,-81.39 -11.49,94.94 2.15,199.67 -3.81,300.79 -14.38,243.13 -21.34,117.07 -89.25,245.33z"/>
  <path class="fil2" d="M1557.59 6748.64c27.93,-79.59 132.31,-335.65 194.89,-370.05 113,85.24 81.33,194.57 70.44,352.14l-265.34 17.91zm-283.41 541.65c101.61,-0.04 92.89,-45.58 119.63,-135.94 79.94,-269.95 98.7,-242.54 220.71,-282.19 74.24,-24.12 129.41,-32.62 208.51,-45.19 -1.05,71.35 -8.68,148.43 -13.39,220.79 -3.87,59.46 -23.9,163.91 3.84,218.27 90.74,-38.59 96.89,-229.21 120.74,-379.19 51.72,-324.93 14.61,-118.16 26.46,-456 5.21,-148.27 -5.61,-173.18 -118.69,-213.5l42.39 -152.5c-92.82,-1.64 -109.02,25.63 -165.16,75.56 -85.09,75.67 -73.74,8.89 -95.36,114.56 -6.56,32.1 -159.85,447.51 -207.4,492.39 -55.35,52.21 -97.07,29.41 -87.69,147.09 8.46,106.27 18.57,-13.67 14.59,91.67 -2.73,72.46 -69.07,149.04 -69.2,304.18z"/>
  <path class="fil2" d="M4529.4 6905.05c31.74,-85.33 129.86,-333.6 195.92,-372.8 103.5,67.33 84.39,210.8 70.9,352.76l-266.82 20.04zm-262.15 542.75c150.13,-25.64 80.87,-332.03 241.06,-396.72l276.72 -72.31c36.22,133.92 -53.97,329.24 1.24,442.13 89.62,-37.41 98.37,-237.54 119.39,-377.61 51.63,-343.91 15,-93.14 27.01,-457.99 5.04,-153.19 -6.32,-164.91 -116.33,-215.49l38.24 -147.23c-100.98,-9.86 -107.54,27.13 -161.24,74.1 -91.92,80.37 -72.46,-1.61 -95.77,112.41 -8.26,40.49 -102.27,261.9 -133.38,348.57 -21.05,58.63 -36.45,115.36 -83.02,152.62 -171.36,137.03 -34.49,101.89 -61.66,233.78l-63.83 195.26c-7.59,36.83 -9.44,74.71 11.59,108.5z"/>
  <path class="fil2" d="M6075.27 6682.16c29.47,-58.47 12.42,-41.41 56.36,-76.89 116.83,58.85 87.25,206.32 76.1,355.68l-264.37 7.48 131.91 -286.27zm-401.52 834.98c114.51,-1.98 70.52,-94.72 173.54,-317.76 51.07,-110.6 237.95,-123.83 359.55,-143.26 -0.13,117.3 -50.94,339.07 -14.07,434.1 91.45,-11.25 67.93,-47.49 105.38,-241.41l48.72 -591.05c3.8,-140.94 -11.78,-168.25 -117.52,-218.17l39.45 -134.5c-80.63,-28.6 -116,16.87 -158.58,57.31 -92.8,88.11 -79.06,9.3 -101.37,120.68 -11.65,58.17 -100.4,263.18 -134.29,353.06 -103.46,274.22 -199.66,121.24 -153.06,315.45 15.09,62.93 30.24,-40.3 9.44,70.73 -16.45,87.73 -99.2,205.67 -57.2,294.81z"/>
  <path class="fil2" d="M2804.32 6814.57c28.83,-78.93 133.13,-333.3 194.28,-371.49 113.77,78.11 82.52,200.75 71.19,352.46l-265.46 19.04zm-263.75 542.69c109.22,-21.4 77.1,-130.33 169.4,-324.13 49.69,-104.35 247.52,-123.84 359.48,-142.27 -0.69,127.4 -57.3,338.23 -9.87,439.99 93.86,-34.95 98.36,-241.78 123.43,-394.4 47.41,-288.47 12.22,-161.82 24.96,-440.39 7.03,-153.61 -7.93,-165.93 -116.81,-215.7l37.77 -148.44c-91.81,-4.33 -105.71,21.3 -163.31,72.96 -105.45,94.54 -51.83,-9.17 -99.62,137.36 -27.2,83.34 -145.21,427.78 -221.78,484.67 -145.75,108.23 -27.72,112.74 -51.4,227.73l-52.25 302.61z"/>
  <path class="fil0" d="M1056.56 8258.05c67.21,59.67 699.1,25.89 775.64,24.37l2284.49 -9.79c564.09,-2.85 1155.22,7.99 1718.37,-16.9l566.51 6.46c104.95,-1.3 686.38,28.82 736.11,-27.46 -46.81,-38.86 -134.44,-23.89 -196.64,-23.69l-1339.92 4.09c-505.58,2.42 -1011.63,14.73 -1517.33,9.09 -912.78,-10.16 -1948.38,31.24 -2848.21,12.95 -23.5,-0.48 -76.81,-2.98 -97.28,-1.07l-81.73 21.94z"/>
  <path class="fil2" d="M1027.8 6684.61c-95.68,-188.95 -26.41,-519.39 -53.02,-567.43 -24.54,-44.24 -3.59,-34.47 -72.92,-25.15 -22.97,3.09 -58.63,17.34 -80.22,29.76 -35.82,132.01 25.54,449.06 65.92,565.86 46.09,133.38 99.19,107.95 44.52,235.18 -27.05,62.96 -79.84,192.04 -75.41,267.01 268.13,60.33 64.14,-74.08 325.03,-496.33 99.16,-160.51 268.04,-384.84 240.88,-619.8 -71.01,15.5 -30.87,-25.89 -125.98,125.41 -89.99,143.15 -214.22,448.02 -268.79,485.49z"/>
  <path class="fil2" d="M3742.43 7341.22c149.26,119.78 286.93,-59.85 382.47,-111.71 63.84,-34.65 84.24,-10.48 149.25,-35.95 -9.83,-115.11 -25.8,-42.66 -46.78,-102.76 -53.34,-152.98 82.46,11.16 -154.32,-321.06 -193.84,-271.99 -68.76,-281.92 45.35,-393.69 -35.06,58.54 -58.78,-2.8 -48.76,105.79 87.89,-0.71 194.16,-102.96 254.33,-137.13 24.78,-167.39 2.76,-176.12 -136.37,-121.03 -197.57,78.24 -487.47,272.78 -327.89,534.37 99.47,163.03 269.97,257.07 201.19,383.49 -85.04,156.27 50.22,-38.57 -153.92,50.72 -85.3,37.31 -165.9,48.07 -164.54,148.96z"/>
  <path class="fil2" d="M5078.33 6949.73c17.89,71.66 -8.42,5 49.11,38.26 -7.09,96.25 -16.44,186.16 -23.34,284.24 -3.16,44.55 -10.17,117.93 -8.09,160.56 4.16,84.37 12.43,72.35 80.93,79.68 65.94,-237.9 5.54,-517.44 130.84,-554.24l164.21 -18.35c107.25,1.93 169.49,64.73 184.91,-49.93 23.41,-174 -274.29,-71.63 -369.63,-60.88 17.39,-119.98 66.87,-257.29 113.19,-346.69 122.99,-25.49 140.39,-19.19 259.02,18.11 16.87,-62.98 34.88,-121.54 18.78,-178.03 -377.85,-116.11 -461.85,168.62 -502.54,395.62 -37.13,207.14 -23.26,106.88 -97.39,231.65z"/>
  <path class="fil0" d="M1060.35 8169.01c88.24,70.06 51.99,24.75 62,26.89 7.15,1.55 61.3,3.25 71.03,3.19l3986.32 -25.4c37.39,-10.41 23.2,-7.12 43.09,-20.55 -44.35,-32.22 -44.93,-28.73 -133.5,-28.35 -46.81,0.2 -96.53,1.92 -143.6,3.12 -84.84,2.19 -163.49,2.94 -249.97,2.58l-1563.97 7.23c-346.89,2.24 -702.7,-5.95 -1044.69,4.22 -141.74,4.23 -963.63,-24.65 -1026.7,27.06z"/>
  <path class="fil2" d="M2144.22 7250.75c88.87,21.76 442.52,13.9 395.86,-223.35 -109.46,56.82 -140.26,84.48 -287.75,76.74 -32.49,-248.68 215.79,-723.33 186.53,-981.39 -198.66,-28.3 -253.22,454.38 -251.92,495.05 3.24,101.61 -15.93,207.4 -37.32,320 -26.92,141.64 -79.18,185.06 -5.4,312.95z"/>
  <path class="fil0" d="M1058.13 7562.01c75.43,48.68 61.34,21.17 61.49,21.2 13.9,2.32 51.71,2.05 67.21,1.65 697.3,-17.81 3757.13,0.97 3843.92,-30.72 -32.7,-67.79 -138.24,-41.16 -222,-38.83 -244.97,6.84 -232.95,-12.22 -495.75,20.04 -63.76,7.84 -175.93,-16.92 -263.6,-17.17l-2018.03 8.89c-166.52,2.86 -333.11,0.43 -499.17,2.43 -85.06,1.02 -167.69,3.03 -250.34,2.81 -167.39,-0.45 -182.32,-27.56 -223.72,29.7z"/>
  <path class="fil1" d="M4736.4 3544.5c53.91,64.44 11.39,90.42 -34.87,144.9 -78.08,91.97 -40.25,72.41 -7.69,162.29 28.23,77.95 -47.53,294.51 139.42,352.26 47.93,-46.91 53.35,-85.01 79.72,-149.19 84.17,-204.89 155.82,-108.02 172.78,-515.31 -56.83,-19.52 -116.29,-43.82 -184.02,-45.06 -23.86,-0.44 -70.84,5.05 -92.74,11.33 -52.43,15.09 -39.78,9.72 -72.59,38.77z"/>
  <path class="fil2" d="M2687.08 2578.91c43.81,127.69 297.08,267.52 505.81,298.73 269.67,40.31 484.73,6.96 595.07,-165.58 200.98,-314.28 427.42,-818.14 257.67,-1253.59 -8.41,14.21 9.09,247.21 4.19,315.22 -20.41,283.88 -144.85,615.85 -303.03,836.58 -192.36,268.42 -621.92,210.75 -864.32,91.87 -126.52,-62.06 -174.56,-132.35 -195.39,-123.23z"/>
  <path class="fil2" d="M4684.11 2593.59c53.89,120.43 286.36,309.24 475.16,382.1 245.36,94.71 499.5,-75.3 619.09,-181.89 390.83,-348.28 427.2,-654.01 280.36,-1255.83 -25.5,45.29 21.25,211.98 30.86,326.47 10.75,127.94 19.4,237.44 -26.11,360.26 -132.31,357.17 -539.11,768.47 -912.86,671.78 -83.54,-21.63 -222.17,-104.21 -272.79,-143.08 -50.01,-38.39 -169.26,-164.56 -193.7,-159.8z"/>
  <path class="fil2" d="M6280.67 4602.67c79.8,291.83 788.63,510.87 1058.7,110.81 206.03,-305.23 245.32,-1030.07 162.95,-1406.23 -15.64,23.52 -6.44,-1.87 -14.87,40.72 -12.78,64.61 39.46,341.38 -13.53,669.34 -68.89,426.39 -160.22,863.69 -715.26,819.81 -215.65,-17.04 -415.06,-145.01 -478,-234.44z"/>
  <path class="fil2" d="M7298.59 7512.04c143.93,10.62 100.09,-93.15 109.27,-209.11 30.59,-385.58 141.22,-621.03 169.27,-894.37 -145.46,7.75 -160.86,35.09 -200.41,154.35 -53.46,161.13 -59.13,132.3 -41.63,291.32 20.19,183.26 -107.75,447.35 -36.5,657.81z"/>
  <path class="fil2" d="M1199 3747.87c43.78,135.81 683.5,682.61 953.1,444.17 91.04,-80.53 209.32,-371.05 248.15,-515.5 55.29,-205.74 93.81,-495.11 28.67,-693.6 -50.06,31.79 -15.46,-11.2 -22.41,61.28 -15.78,164.9 26.19,298.59 -67.86,583.98 -40.24,122.15 -150.96,400.92 -233.28,474.81 -214.65,192.63 -672.13,-138.71 -841.18,-300.44 -90.42,-86.52 -37.87,-63.3 -65.19,-54.7z"/>
  <path class="fil0" d="M1061.36 7472.94c56.18,43.9 1749.5,12.54 2043.59,8.02 109.44,-1.7 220.22,-1.24 323.25,-0.48 89.48,0.67 267.11,13.64 322.91,-25.96 -97.89,-38.37 -828.67,-29.91 -1018.72,-21.88 -66.32,2.8 -97.09,17.64 -160.48,17.56 -61.74,-0.11 -109.05,-14.75 -178.13,-16.4l-1035.96 7.29c-136.79,-1.45 -274.17,-28.91 -296.46,31.85z"/>
  <path class="fil0" d="M5274.53 8155.83c88,51.16 1242.73,13.4 1415.8,14.8 75.61,0.59 156.93,0.39 235.14,-0.31 65.68,-0.57 161.29,12.36 216.56,-24.59 -25.88,-24.03 -3.81,-17.53 -53.33,-26.51l-179.63 -0.54c-499.68,-4.45 -1048.54,17.41 -1535.32,8.93 -80.84,-1.42 -59.93,-14.79 -99.22,28.22z"/>
  <path class="fil1" d="M2224.87 6124.41c62.8,-55.96 87.32,-95.75 202.85,-95.4 -49.24,-49.63 -24.66,-7.9 -34.67,-102.38 -30.05,-283.59 59.93,-247.48 25.11,-359.64 -63.83,16.1 -75.88,46.8 -111.74,96.74 -56.59,78.78 -57.74,48.23 -100.63,92.61 -12.26,12.69 -82.67,300.87 -86.06,326.05l105.15 42.02z"/>
  <path class="fil3" d="M6752.26 6628.84c21.68,105.08 -38.87,206.52 -47.71,311.45 91.22,-40.17 419.24,-164.5 329.27,-291.75 -39.59,-56 -332.06,-194.41 -367.57,-75.25 -33.17,111.28 10.78,21.77 86.02,55.55z"/>
  <path class="fil1" d="M2490.26 6039.3c41.32,88.41 54.86,60.74 35.98,190.38l39.07 -36.19c63.76,40.48 87.94,15.66 160.89,6.88 -9.54,-83.85 -39.09,-145.49 -44.08,-265.83 -4.43,-106.33 -2.98,-169.06 -92.8,-203.33 -151.52,52.95 -60.14,228.42 -99.06,308.09z"/>
  <path class="fil3" d="M4529.4 6905.05l266.82 -20.04c13.49,-141.96 32.6,-285.42 -70.9,-352.76 -66.06,39.2 -164.19,287.46 -195.92,372.8z"/>
  <path class="fil3" d="M1557.59 6748.64l265.34 -17.91c10.88,-157.57 42.55,-266.9 -70.44,-352.14 -62.59,34.4 -166.96,290.46 -194.89,370.05z"/>
  <path class="fil3" d="M2804.32 6814.57l265.46 -19.04c11.34,-151.71 42.58,-274.34 -71.19,-352.46 -61.14,38.19 -165.44,292.56 -194.28,371.49z"/>
  <path class="fil3" d="M5943.36 6968.43l264.37 -7.48c11.15,-149.35 40.73,-296.82 -76.1,-355.68 -43.94,35.47 -26.89,18.42 -56.36,76.89l-131.91 286.27z"/>
  <path class="fil4" d="M6155.75 6208.6c158.52,-30.18 217.75,26.45 187.38,182.1 32.3,34.54 48.74,40.75 79.69,75.14 61.02,-238.54 56.85,-349.05 15.15,-584.06 -24.75,28.9 -14.65,-26.42 -19.24,66.38 -4.08,82.56 15.97,66.41 -5.69,234.11 -104.97,-34.8 -57.14,-74.9 -200.44,-71.87 -45.59,72.47 -34.39,6.61 -56.85,98.2z"/>
  <path class="fil0" d="M5346.23 4566.16l-94.32 22.28c90.46,52.87 242.69,-17.76 325.7,-41.86l-54.21 -45.65c47.3,-65.28 81.41,-47.32 86.95,-154.44 -100.01,-0.85 -103.3,76.56 -158.42,129.69 -27.24,-19.46 -53.67,-39.87 -84.06,-72.96 -44.47,-48.46 -25.67,-52.16 -92.28,-82.78 -6.52,140.95 37.61,155.43 70.64,245.73z"/>
  <path class="fil1" d="M3985.8 3342.98c-76.07,-103.07 -304.3,-153.34 -419.79,-148.84 26.41,82.11 87.06,129.56 167.18,166.84 129.99,60.51 129.65,-16.9 252.61,-18z"/>
  <path class="fil2" d="M3776.27 6423.43l-485.29 -22.99c1.33,8.19 6.6,42.55 7.99,47.03 12.47,40.39 9.89,27.67 18.39,44.05l409.72 15.99 49.19 -84.07z"/>
  <path class="fil1" d="M2923.34 6116.18c43.21,4.12 36.69,15.23 28.13,-25.27 -32.07,-112.72 14.97,-261.78 -138.18,-203.97 -39.59,75.15 -7.65,148.9 14.5,229.47l95.56 -0.22z"/>
  <path class="fil2" d="M2708.32 6451.91l-213.48 6.94 14.17 -69.51c-39.73,22.92 -19.81,7.11 -30.82,67.27 -2.85,15.64 -5.32,67.93 -7.07,87.12l202.37 8.09c11.61,-23.72 4.52,7.46 22.52,-44.62 14.83,-42.89 0.85,7.61 12.31,-55.29z"/>
  <path class="fil1" d="M4374.54 3593.39c41.05,46.17 98.45,38.61 163.06,23.65l12.33 39.05c19.24,53.6 -7.7,8.58 22.43,49.19 80.99,4.25 119.15,-65.28 124.08,-155.69 -81.74,48.52 -198.54,66.49 -321.9,43.81z"/>
  <path class="fil2" d="M4459.52 6477.07l-135.11 -13.79c-60.34,16.73 -74.33,39.38 -115.54,78.58l228.25 24.44 22.41 -89.23z"/>
  <path class="fil4" d="M5261.58 7530.44c29.75,38.9 -22.75,35.69 141.9,33.68 72.74,-0.88 111.05,13.19 169.58,-17.5 -19.72,-36.36 42.42,-45.84 -143.1,-37.41 -67.33,3.04 -119.63,-5.77 -168.39,21.23z"/>
  <path class="fil4" d="M5818.64 7541.51c17.23,13.67 -22.02,19.24 133.13,19.94 55.52,0.23 109.79,0.16 165.22,-2.46 -28.73,-56.11 -40.34,-68.31 -229.83,-50.35 -85.85,8.15 -28.06,-17.5 -68.52,32.87z"/>
  <path class="fil0" d="M4411.1 7472.44c81.63,5.15 212.83,21.36 276.9,-7.5 -23.38,-60.03 -145.21,-53.94 -219.78,-42.53 -82.7,12.63 -34.43,-9.63 -57.11,50.04z"/>
  <path class="fil0" d="M5286.49 7442.47c24.32,25.78 -0.36,20.41 49.75,28.14 63.41,9.76 207.75,10.74 234.7,-31.2 -48.94,-36 -22.65,-18.63 -130.21,-16.8 -69.34,1.19 -103.7,-15.42 -154.24,19.86z"/>
  <path class="fil0" d="M6655.02 7525.27c25.99,30.04 -1.11,34.69 123.09,32.87 46.46,-0.69 88.89,-1.77 135.15,-5.84 -43.28,-61.34 -130.93,-57.04 -202.8,-48.1 -68.67,8.56 -14.97,9.34 -55.44,21.07z"/>
  <path class="fil4" d="M5855.14 7454.17c24.35,14.95 -45.75,16.24 111.04,16.12 168.01,-0.13 103.92,3.16 123.26,-39.67 -19.69,-9.81 -191.07,-51.54 -234.3,23.54z"/>
  <path class="fil0" d="M3893.83 7472.81l194.34 6.02c2.28,-0.2 32.43,-3.4 33.2,-3.59 39.68,-9.81 17.04,-4.51 37.7,-19.93 -0.38,-0.35 9.19,-49.46 -140,-27.66 -44.59,6.54 -85.96,26.61 -125.23,45.15z"/>
  <path class="fil5" d="M6304.31 7558.01l167.33 1.08c-27.22,-44.25 -16.26,-49.44 -66.28,-57.73 -60.45,-9.99 -85.78,8.05 -101.06,56.65z"/>
  <path class="fil4" d="M4899.37 7462.27c53.06,26.43 74.21,22.64 107.53,-16.46 -16.95,-12.48 37.89,-35.43 -58.25,-23.14 -60.42,7.72 -22.91,24.28 -49.28,39.6z"/>
  <path class="fil0" d="M6688.78 7443.91c13.75,8.92 5.85,13.29 40.76,19.64 22.45,4.07 49.53,1.54 72.33,1.27 -10.92,-13.41 -18,-33.27 -44.59,-44.16 -66.61,-27.26 -40.17,4.3 -68.5,23.26z"/>
  <path class="fil4" d="M4349.98 5511.1c37.28,-17.14 25.03,24.7 34.24,-26.79 8.1,-45.2 2.89,-13.47 -12.67,-44.74 -52.53,28.64 -59.16,15.19 -21.57,71.53z"/>
  <path class="fil5" d="M6348.51 7444.08c4.44,3.35 10.77,4.54 13.12,10.34 9.72,23.84 57.07,-6.63 57.19,-6.69 -21.78,-32.77 18.98,-24.96 -28.15,-29.16 -66.52,-5.92 -13.08,7.84 -42.16,25.51z"/>
  <g id="_2426645037472">
   <path class="fil6" d="M1113.11 7716.74l134.06 0.61c14.42,-0.46 27.65,-2.3 39.51,-5.63 5.15,-1.37 9.67,-2.04 13.57,-2.02 13.72,0.06 26.93,10.27 39.54,30.71 12.61,20.35 18.79,41.29 18.44,62.8 -0.24,14.75 -4.92,25.48 -13.98,32.2 -6.85,5.09 -15.06,7.57 -24.52,7.52 -9.03,-0.04 -16.8,-2.59 -23.32,-7.57 -6.52,-5.06 -12.9,-13.33 -19.23,-24.9 -5.39,-10.52 -9.7,-17.39 -12.87,-20.61 -3.16,-3.22 -7.04,-4.89 -11.65,-4.91 -6.25,-0.03 -10.81,2.64 -13.58,7.83 -2.78,5.28 -4.3,13.86 -4.5,25.92l-2.28 142.25c-0.23,14.57 1.16,25.25 4.09,31.85 2.94,6.61 8.58,11.66 17.04,15.34 9.14,3.86 15.24,7.62 18.49,11.1 3.33,3.48 4.9,8.26 4.8,14.42 -0.2,12.15 -8.68,21.21 -25.27,27.04 -16.59,5.82 -42.08,8.66 -76.37,8.59 -42.02,-0.28 -73.13,-3.89 -93.43,-10.93 -17.02,-5.8 -25.46,-15.12 -25.26,-28.04 0.11,-6.94 3.33,-12.3 9.46,-16.18 1.49,-0.86 7.6,-2.92 18.16,-6.07 6.46,-1.79 10.94,-5.33 13.54,-10.61 2.52,-5.19 4.68,-15.33 6.48,-30.16 1.52,-13.26 3.16,-34.59 4.85,-64.17 1.6,-29.57 2.62,-55.15 2.96,-76.84 0.25,-15.26 -0.8,-26.11 -3.04,-32.54 -2.24,-6.52 -6.09,-9.74 -11.56,-9.77 -6.6,-0.03 -13.1,4.71 -19.51,14.14 -11.65,17.3 -21.21,28.62 -28.59,34.22 -8.7,6.56 -17.17,9.81 -25.33,9.78 -9.12,-0.04 -16.62,-3.46 -22.41,-10.43 -5.88,-6.88 -8.69,-15.65 -8.52,-26.32 0.17,-10.49 2.7,-22.02 7.68,-34.66 4.98,-12.55 11.5,-24.15 19.66,-34.78 13.13,-17.29 26.03,-25.81 38.53,-25.76 3.39,0.02 7.28,0.55 11.7,1.53 9.08,1.95 16.62,3.2 22.43,3.92 5.89,0.72 12.57,1.09 20.21,1.13zm419.08 -3.73c52.87,0.24 79.19,11.3 78.83,33.15 -0.1,5.98 -1.56,10.75 -4.32,14.46 -2.75,3.72 -8.02,7.86 -15.74,12.42 -6.67,4.05 -10.92,9.32 -12.85,15.99 -1.84,6.58 -2.93,19.94 -3.25,40.06 -0.19,11.88 1.86,19.18 6.25,21.89 2.49,1.74 6.38,2.8 11.5,3.17 5.21,0.28 17.36,0.51 36.55,0.6 17.45,0.08 28.32,-0.74 32.6,-2.63 4.2,-1.8 6.44,-6.48 6.56,-13.94 0.36,-22.38 -0.44,-37.91 -2.29,-46.76 -1.94,-8.86 -5.84,-14.86 -11.69,-18.09 -7.4,-4.28 -12.29,-7.87 -14.58,-10.91 -2.3,-2.96 -3.45,-6.87 -3.37,-11.81 0.11,-6.94 2.81,-13.26 8.2,-18.88 5.3,-5.61 12.22,-9.48 20.76,-11.44 17.7,-4.17 39.87,-6.24 66.52,-6.12 31.17,0.14 54.13,3.11 68.89,8.9 14.76,5.7 22.08,14.59 21.89,26.65 -0.16,10.15 -5.58,17.76 -16.16,22.74 -6.65,3.09 -11.04,5.94 -13.17,8.7 -2.04,2.85 -3.78,8.05 -5.02,15.68 -0.76,4.16 -1.93,22.98 -3.43,56.37 -1.57,33.39 -2.52,59.84 -2.83,79.53 -0.55,34.43 0.4,56.21 2.77,65.59 1.22,5.04 2.73,8.51 4.44,10.17 1.63,1.74 6.95,5.15 15.81,10.22 6.37,3.59 9.58,9.07 9.46,16.35 -0.2,12.84 -8.08,22.17 -23.55,28 -15.37,5.74 -40.34,8.58 -74.72,8.42 -30.21,-0.14 -52.48,-3.28 -66.8,-9.24 -12.94,-5.44 -19.41,-13.88 -19.22,-25.24 0.15,-9.63 5.31,-17.15 15.39,-22.57 4.99,-2.67 8.33,-5.34 10.2,-8.11 1.78,-2.68 3.68,-7.61 5.44,-14.89 3.27,-14.21 5.11,-31.72 5.44,-52.37 0.17,-10.67 -1.29,-17.27 -4.37,-19.8 -3.17,-2.62 -11.31,-3.87 -24.51,-3.93 -30.39,-0.14 -49.69,1.42 -58.08,4.77 -3.41,1.37 -5.64,5.35 -6.53,11.94 -1.17,8.15 -1.85,18.12 -2.05,30 -0.31,19.25 2.17,33.15 7.5,41.67 1.78,2.7 6.15,6.19 13.03,10.47 7.06,4.11 10.51,10.8 10.36,20.17 -0.19,11.8 -8.59,20.87 -25.09,27.04 -16.51,6.17 -40.09,9.27 -70.57,9.13 -27.87,-0.13 -50.48,-3.18 -68.1,-8.99 -7.51,-2.55 -13.44,-6.22 -17.71,-10.92 -4.27,-4.61 -6.36,-9.74 -6.27,-15.38 0.09,-5.56 1.55,-9.89 4.29,-12.91 2.74,-3.02 8.8,-6.9 17.99,-11.63 4.81,-2.32 8.16,-5.34 10.22,-9.06 1.97,-3.72 3.55,-10.05 4.73,-18.8 2.84,-19.85 4.56,-45.78 5.07,-77.78 0.09,-5.9 0.12,-12.93 0.08,-21.08 -0.04,-40.69 -0.02,-63.84 0.07,-69.65 0.41,-14.57 -0.66,-24.12 -3.19,-28.81 -2.53,-4.7 -9.39,-9.84 -20.5,-15.44 -7.41,-3.59 -11.06,-8.99 -10.94,-16.1 0.28,-17.09 17.13,-28.9 50.41,-35.33 19.42,-3.81 39.33,-5.72 59.65,-5.63zm414.12 7.53l130.67 0.6c26.48,0.12 45.77,-0.31 57.94,-1.39 12.17,-1.07 24.02,-3.27 35.62,-6.6 3.57,-0.94 6.36,-1.44 8.36,-1.44 8.86,0.04 16.59,4.76 23.22,14.33 10.95,15.49 16.21,34.08 15.86,55.94 -0.17,11.01 -2.66,19.68 -7.36,26.07 -4.79,6.31 -11.26,9.41 -19.34,9.37 -5.65,-0.03 -9.97,-1.18 -13.06,-3.44 -3.09,-2.27 -7.26,-7.5 -12.35,-15.41 -7.28,-11.4 -16.63,-19.07 -28.03,-22.94 -11.4,-3.87 -30.12,-5.86 -56.25,-5.98 -19.54,-0.09 -31.4,3.41 -35.77,10.33 -2.32,3.72 -3.7,8.66 -4.24,14.99 -0.44,6.24 -0.96,22.2 -1.37,47.96 -0.16,10.15 1.47,16.48 4.82,18.93 3.35,2.53 12.18,3.79 26.59,3.85 7.12,0.04 12.35,-1.42 15.61,-4.35 3.26,-3.02 5.43,-8.31 6.33,-15.85 1.37,-9.88 2.7,-16.56 4.06,-20.19 1.27,-3.64 3.67,-6.84 7.09,-9.51 3.61,-3.02 7.8,-4.56 12.58,-4.54 6.94,0.03 12.8,3.35 17.64,9.97 3.48,4.96 6.39,13.65 8.61,26.15 2.23,12.42 3.33,25.43 3.11,38.96 -0.43,26.8 -4.95,48.72 -13.56,65.77 -4.75,9.35 -11.77,13.91 -21.06,13.87 -5.82,-0.02 -9.79,-1.52 -11.91,-4.48 -2.12,-2.96 -3.76,-9.12 -4.83,-18.41 -2.21,-19.18 -13.26,-28.77 -33.06,-28.86 -7.64,-0.04 -12.89,2.28 -15.74,7.13 -2.94,4.85 -4.48,13.77 -4.69,26.78 -0.13,7.98 0.32,18.3 1.16,30.89 0.93,12.67 1.92,21 3.07,25.08 1.22,5.04 5.42,8.62 12.42,10.56 7,2.03 18.7,3.04 35.2,3.11 25.44,0.11 44.6,-3.09 57.64,-9.54 12.95,-6.44 23.65,-18.2 32.09,-35.33 4.93,-9.78 9.29,-16.35 13.17,-19.72 3.87,-3.37 8.85,-5.08 14.93,-5.05 7.12,0.03 12.98,3.18 17.56,9.36 4.59,6.26 6.72,14 6.57,23.28 -0.16,10.15 -2.97,22.89 -8.42,38.13 -5.54,15.24 -12.18,28.75 -20.02,40.59 -4,5.71 -7.27,9.51 -9.82,11.5 -2.63,1.89 -5.86,2.84 -9.77,2.91 -3.21,-0.1 -7.8,-0.56 -13.95,-1.63 -10.82,-2.04 -25.3,-3.41 -43.44,-4.02l-215.67 -0.98c-8.69,-0.04 -15.34,-1.98 -20.06,-5.81 -4.63,-3.84 -6.97,-9.22 -6.86,-16.17 0.08,-4.94 1.18,-8.5 3.3,-10.65 2.03,-2.16 6.77,-5 14.11,-8.35 5.07,-2.15 8.94,-4.82 11.42,-8.02 2.48,-3.28 4.47,-7.96 5.96,-14.2 5.96,-25.56 9.38,-60.07 10.08,-103.44 1.05,-65.4 -2.37,-106.61 -10.26,-123.83 -1.6,-3.39 -3.47,-5.74 -5.44,-7.14 -2.06,-1.31 -6.29,-2.98 -12.69,-4.83 -9.59,-2.99 -14.35,-9.43 -14.19,-19.41 0.09,-5.46 1.81,-10.23 5.1,-14.46 3.28,-4.24 7.58,-6.99 12.81,-8.36 6.62,-1.44 19.49,-2.17 38.5,-2.08zm738.71 245.04l-31.66 68.21c-5.39,11.51 -9.77,19.21 -13.05,23.19 -3.36,3.97 -6.95,5.95 -10.78,5.93 -3.73,-0.02 -7.09,-1.59 -9.91,-4.9 -1.79,-2 -6.01,-9.48 -12.49,-22.35 -6.48,-12.96 -11.85,-24.43 -16.12,-34.43l-32.31 -75.61c-4.43,-10.52 -9.21,-15.83 -14.24,-15.85 -5.47,-0.02 -8.5,4.48 -9.17,13.49 -1.53,19.94 -2.35,38.42 -2.62,55.33 -0.28,17.61 0.31,29.58 1.95,35.83 1.15,3.74 2.67,6.52 4.56,8.18 1.97,1.74 7.22,4.8 15.74,9.27 5.6,2.89 8.3,7.84 8.19,14.95 -0.31,19 -24.77,28.43 -73.48,28.21 -41.07,-0.19 -61.41,-9.56 -61.11,-28.04 0.07,-4.69 1.17,-8.15 3.38,-10.22 2.12,-2.16 7.64,-5.26 16.56,-9.47 5.6,-2.57 9.48,-6.03 11.46,-10.36 2.07,-4.41 3.85,-13 5.36,-25.65 1.78,-13.61 3.53,-35.81 5.41,-66.68 1.89,-30.96 2.92,-57.41 3.27,-79.44 0.44,-27.58 -1.34,-46.33 -5.44,-56.15 -1.42,-3.39 -3.11,-6 -5.08,-7.66 -1.89,-1.74 -5.58,-3.93 -10.93,-6.64 -11.98,-5.87 -17.85,-13.36 -17.7,-22.46 0.09,-5.99 2.44,-11.35 6.94,-16.28 4.59,-4.84 10.64,-8.28 18.14,-10.33 7.5,-2.13 17.52,-4 29.96,-5.59 12.53,-1.5 23.05,-2.33 31.73,-2.29 21.71,0.1 37.04,1.99 45.93,5.59 4.4,1.67 7.83,4.02 10.31,6.9 2.56,2.88 6.11,8.88 10.65,17.83l51.4 97.56c5.56,10.69 9.45,17.22 11.58,19.65 2.22,2.35 5.24,3.58 9.15,3.6 3.39,0.02 6.36,-1.27 9.09,-3.78 2.65,-2.5 5.85,-7.26 9.52,-14.18l36.98 -69.75c4.57,-8.91 7.53,-14.8 8.87,-17.48 8.61,-16.88 17.04,-28.11 25.29,-33.72 10.45,-7.24 29.35,-10.8 56.61,-10.67 48.02,0.22 71.8,11.26 71.45,33.11 -0.08,4.94 -1.1,8.84 -2.97,11.87 -1.95,2.94 -5.83,6.48 -11.63,10.7 -7.91,5.86 -12.91,14.43 -15.17,25.61 -4.28,23.31 -6.65,51.84 -7.18,85.32 -0.69,43.19 0.7,81.11 4.26,113.65 0.91,7.98 2.39,13.37 4.43,16.24 2.12,2.96 7.53,7.24 16.2,13.09 6.1,4.11 9.06,9.5 8.94,16.26 -0.19,11.89 -8.22,20.26 -24.11,25.04 -8.2,2.74 -16.74,4.44 -25.79,5.26 -8.96,0.82 -22.77,1.11 -41.43,1.11 -28.65,-0.22 -49.98,-2.31 -63.98,-6.45 -15.56,-4.67 -23.24,-12.42 -23.07,-23.44 0.07,-4.07 1.17,-7.45 3.2,-10.05 2.13,-2.59 7.41,-7.43 16.03,-14.32 4.48,-3.54 7.54,-10.37 9.36,-20.52 1.72,-10.14 2.87,-27.4 3.26,-51.86 0.22,-13.53 -0.33,-22.38 -1.48,-26.64 -1.23,-4.26 -3.89,-6.35 -7.97,-6.37 -4.69,-0.02 -9.34,3.17 -13.87,9.65 -4.54,6.57 -11.34,19.46 -20.42,38.94zm461.09 -246.67c43.58,0.2 81.5,12.78 113.66,37.9 21.78,17.19 39.31,39.48 52.59,66.77 12.94,27.21 19.19,54.3 18.76,81.45 -0.64,39.99 -14.41,75.67 -41.4,107.03 -22.83,26.7 -52.31,45.73 -88.61,57.28 -22.34,7.01 -44.71,10.46 -67.11,10.36 -29.35,-0.13 -57.3,-6.33 -83.93,-18.69 -32.15,-14.89 -57.15,-37.3 -74.99,-67.13 -17.34,-28.88 -25.69,-60.75 -25.13,-95.44 0.65,-40.33 12.59,-75.84 36,-106.53 20.85,-27.41 48.52,-47.4 83.11,-60.17 23.24,-8.65 48.92,-12.96 77.05,-12.83zm-25.3 72.83c-14.24,-0.07 -25.63,6.22 -34.17,18.84 -6.57,9.51 -9.97,20.77 -10.18,33.78 -0.31,19.17 3.25,41.3 10.66,66.5 7.41,25.19 16.87,47.61 28.45,67.09 5.07,8.35 11.48,14.97 19.13,19.95 7.65,4.89 15.43,7.44 23.41,7.48 12.85,0.06 23.35,-4.76 31.4,-14.35 7.97,-9.68 12.17,-22.32 12.42,-38.11 0.33,-20.47 -2.61,-42.6 -8.83,-66.31 -6.3,-23.8 -14.49,-44.04 -24.72,-60.92 -6.35,-10.35 -13.69,-18.54 -22.01,-24.48 -8.42,-5.94 -16.96,-9.09 -25.55,-9.48zm442.3 -70.93c17.45,0.08 40.3,4.52 68.47,13.24 3.37,1.05 6.06,1.59 8.14,1.6 1.65,0.01 6.8,-1.53 15.27,-4.53 2.8,-1.02 5.67,-1.44 8.7,-1.43 11.38,0.06 23.22,9.04 35.52,27.05 12.39,18.02 18.45,35.13 18.19,51.43 -0.15,9.46 -3.15,17.51 -8.89,23.99 -5.83,6.48 -12.75,9.74 -20.91,9.71 -6.77,-0.03 -12.3,-1.44 -16.52,-4.15 -4.13,-2.79 -13.37,-10.81 -27.57,-24.33 -20.01,-19 -39.92,-28.63 -59.54,-28.72 -9.55,-0.05 -17.14,2.26 -22.86,6.75 -5.8,4.57 -8.77,10.54 -8.89,18 -0.24,14.75 12.61,25.91 38.45,33.48 34.91,10.48 57.28,18.13 67.01,22.94 42.91,21.19 64.02,52.25 63.37,93.02 -0.58,36.08 -15.81,65.51 -45.7,88.27 -30.5,23.2 -70.19,34.72 -118.81,34.5 -21.7,-0.1 -44.58,-2.8 -68.55,-8.03 -23.97,-5.31 -41.32,-11.47 -51.89,-18.45 -7.99,-5.42 -15.18,-17.24 -21.4,-35.49 -6.22,-18.24 -9.24,-36.04 -8.96,-53.3 0.13,-8.33 1.97,-14.57 5.43,-18.8 4.34,-5.44 9.68,-8.11 16.11,-8.08 6.51,0.03 12.62,3.35 18.42,9.97 3.5,3.74 11.73,15.75 24.6,36.02 6.1,9.48 15.96,17.42 29.49,23.73 13.62,6.31 27.63,9.49 42.22,9.56 12.59,0.06 22.78,-2.15 30.67,-6.8 7.89,-4.65 11.89,-10.61 12.01,-17.9 0.11,-6.76 -2.93,-12.59 -8.92,-17.56 -6,-4.88 -15.82,-9.52 -29.56,-13.84 -24.1,-7.74 -42.48,-14.77 -55.06,-21.24 -12.66,-6.39 -24.43,-14.42 -35.21,-24.19 -26.45,-23.8 -39.39,-50.83 -38.91,-80.93 0.24,-14.92 3.94,-29.48 11.12,-43.58 7.17,-14.11 17.18,-26.29 30.11,-36.56 28.86,-23.72 63.78,-35.53 104.85,-35.34zm347.07 8.69l134.06 0.61c14.42,-0.45 27.65,-2.3 39.51,-5.63 5.14,-1.37 9.67,-2.04 13.57,-2.02 13.72,0.06 26.93,10.27 39.54,30.71 12.61,20.35 18.79,41.29 18.44,62.8 -0.24,14.75 -4.92,25.48 -13.98,32.2 -6.85,5.09 -15.06,7.57 -24.52,7.52 -9.03,-0.04 -16.8,-2.59 -23.32,-7.57 -6.52,-5.06 -12.9,-13.33 -19.23,-24.89 -5.39,-10.52 -9.7,-17.39 -12.87,-20.61 -3.16,-3.23 -7.04,-4.89 -11.64,-4.91 -6.25,-0.03 -10.81,2.64 -13.58,7.83 -2.78,5.28 -4.3,13.86 -4.5,25.92l-2.28 142.25c-0.23,14.57 1.16,25.25 4.09,31.85 2.94,6.61 8.58,11.66 17.04,15.34 9.14,3.86 15.24,7.62 18.49,11.1 3.33,3.48 4.91,8.26 4.8,14.42 -0.19,12.14 -8.67,21.21 -25.26,27.04 -16.59,5.82 -42.08,8.66 -76.37,8.59 -42.02,-0.28 -73.14,-3.89 -93.43,-10.93 -17.01,-5.8 -25.46,-15.12 -25.25,-28.04 0.11,-6.94 3.32,-12.3 9.46,-16.18 1.49,-0.86 7.6,-2.92 18.16,-6.07 6.45,-1.79 10.94,-5.33 13.54,-10.61 2.52,-5.19 4.68,-15.33 6.48,-30.16 1.52,-13.26 3.16,-34.59 4.85,-64.17 1.61,-29.57 2.62,-55.15 2.97,-76.84 0.24,-15.26 -0.8,-26.11 -3.04,-32.54 -2.24,-6.52 -6.09,-9.74 -11.56,-9.77 -6.6,-0.03 -13.1,4.71 -19.5,14.13 -11.65,17.3 -21.21,28.62 -28.59,34.22 -8.7,6.56 -17.17,9.81 -25.33,9.78 -9.12,-0.04 -16.62,-3.46 -22.41,-10.43 -5.88,-6.88 -8.69,-15.65 -8.52,-26.32 0.17,-10.49 2.7,-22.02 7.68,-34.66 4.98,-12.55 11.5,-24.15 19.66,-34.78 13.13,-17.29 26.03,-25.82 38.53,-25.76 3.39,0.02 7.28,0.55 11.7,1.53 9.08,1.95 16.62,3.2 22.43,3.92 5.89,0.72 12.57,1.09 20.21,1.13zm664.56 93.24l-7.1 -17.81c-4.43,-10.34 -9.97,-17.22 -16.77,-20.63 -12.05,-6.56 -18.09,-14.65 -17.93,-24.54 0.35,-21.69 33.08,-32.38 98.2,-32.08 32.56,0.15 57.35,2.95 74.2,8.23 5.7,1.93 10.34,4.91 13.75,9 3.41,4.09 5.07,8.52 4.99,13.47 -0.07,4.25 -0.98,7.45 -2.58,9.61 -1.69,2.24 -6.19,6.57 -13.58,12.95 -4.31,3.54 -6.45,7.26 -6.52,11.16 -0.09,5.9 2.96,15.71 9.16,29.54l14 31.03c6.37,14.08 11.01,23.04 13.72,26.87 2.72,3.83 5.9,5.75 9.46,5.76 3.91,0.02 7.24,-2.13 10.09,-6.54 2.94,-4.41 6.63,-13.07 11.27,-25.89l12.72 -35.5c3.63,-10.13 5.41,-17.76 5.49,-22.88 0.11,-6.76 -3.38,-11.29 -10.46,-13.49 -14.17,-4.67 -21.15,-12.85 -20.97,-24.47 0.17,-10.24 5.75,-17.5 16.85,-21.78 11.1,-4.38 29.28,-6.55 54.55,-6.43 16.5,0.07 29.23,2.04 38.37,5.81 12.6,5.09 18.81,13.27 18.63,24.46 -0.08,4.95 -1.28,9.19 -3.59,12.74 -2.31,3.54 -7.07,8.21 -14.12,14.16 -4.66,3.88 -8.2,7.94 -10.7,12.35 -2.59,4.41 -6.47,13.41 -11.81,27.18l-46.35 117.93c-23.11,54.98 -37.09,87.7 -41.77,98.18 -4.78,10.47 -9.7,19.82 -14.7,28.13 -3.83,6.06 -8.06,10.37 -12.7,12.78 -4.64,2.41 -10.74,3.59 -18.38,3.56 -10.16,-0.05 -18.29,-2.25 -24.47,-6.71 -6.09,-4.45 -11.19,-11.76 -15.28,-21.93l-48.44 -119.67c-2.59,-6.6 -4.6,-10.78 -5.88,-12.43 -1.36,-1.74 -3.17,-2.61 -5.6,-2.63 -3.56,-0.02 -6.63,2.14 -9.22,6.37 -2.59,4.24 -7.63,15.15 -15.02,32.72l-36.02 85.71c-6.68,15.59 -13,25.79 -18.9,30.8 -5.9,4.92 -14.8,7.39 -26.69,7.34 -10.68,-0.05 -19.06,-2.6 -25.23,-7.75 -6.08,-5.06 -11.58,-14.1 -16.41,-26.96l-89.85 -239.56c-3.66,-9.82 -6.26,-15.64 -7.71,-17.47 -1.36,-1.74 -5.91,-4.71 -13.49,-8.83 -8.52,-4.46 -12.74,-11.85 -12.57,-22.43 0.38,-23.85 30.27,-35.69 89.57,-35.41 30.39,0.14 52.32,2.41 65.8,6.72 13.04,4.22 19.42,12.67 19.22,25.24 -0.06,3.91 -0.45,6.68 -1.18,8.5 -0.72,1.73 -3.22,5.71 -7.57,11.76 -2.05,3.2 -3.15,7.19 -3.23,11.96 -0.13,8.41 5.23,26.05 16.17,52.9l10.03 24.42c4.27,10.17 7.12,16.34 8.48,18.52 1.44,2.09 3.51,3.14 6.2,3.15 6.6,0.03 13.61,-9.31 20.85,-28.09l10.89 -28.92c0.81,-1.99 1.28,-3.64 1.29,-4.77 0.02,-1.39 -0.39,-3.21 -1.13,-5.38zm655.93 84.09l46.45 103.09c4.45,9.48 8.17,15.74 11.16,18.7 2.99,3.05 7.65,5.07 13.89,6.05 12.21,1.96 18.19,8.15 18.02,18.65 -0.2,12.41 -7.8,21.22 -22.83,26.61 -15.02,5.31 -39.46,7.89 -73.41,7.82 -38.29,-0.26 -66.65,-1.95 -85.09,-5.25 -8.49,-1.6 -15.12,-4.67 -20.08,-9.37 -4.96,-4.71 -7.3,-10.35 -7.2,-16.95 0.08,-5.12 1.45,-9.02 4.1,-11.78 2.65,-2.76 7.55,-5.34 14.8,-7.74 7.94,-2.66 12.01,-7.23 12.11,-13.65 0.19,-11.36 -6.57,-18.07 -20.26,-20.13 -14.72,-2.15 -35.46,-3.2 -62.29,-3.32 -22.57,-0.11 -36.05,1.14 -40.52,3.89 -2.72,1.64 -5.11,4.67 -7.27,9.08 -2.07,4.41 -3.18,8.66 -3.24,12.73 -0.06,3.65 0.59,6.07 2.06,7.21 1.46,1.13 6.11,2.98 14.06,5.53 10.28,3.08 15.31,9.18 15.17,18.37 -0.32,20.12 -24.62,30.16 -72.98,29.94 -27.44,-0.13 -47.55,-2.13 -60.43,-5.92 -11.84,-3.61 -17.62,-11.44 -17.43,-23.41 0.09,-5.29 1.46,-9.36 4.11,-12.21 2.74,-2.85 7.47,-5.52 14.28,-7.83 11.09,-3.85 19.52,-9.28 25.35,-16.28 5.76,-7 14.07,-21.97 24.94,-44.99l37.2 -78.33c13.66,-28.74 22.86,-50.3 27.61,-64.59 4.66,-14.29 7.22,-28.24 7.62,-42.04 0.41,-14.57 1.43,-24.63 3.17,-30.35 1.74,-5.63 5.39,-11.17 11.03,-16.6 11.91,-11.74 26.94,-17.66 45.09,-17.57 17.1,0.07 33.41,6.83 48.82,20.35 21.41,18.4 52.07,71.8 91.99,160.28zm-177.55 31.2l49.93 0.23c9.11,0.04 13.75,-2.02 13.81,-6.1 0.09,-5.55 -6.03,-19.28 -18.44,-41.2 -5.57,-10 -9.89,-16.79 -12.87,-20.19 -3.07,-3.39 -6.26,-5.06 -9.65,-5.07 -6.08,-0.03 -11.29,5.59 -15.47,16.93 -0.72,1.56 -3.33,7.53 -7.67,18.01 -7.4,17.23 -11.13,27.54 -11.18,30.92 -0.07,4.25 3.72,6.44 11.54,6.47zm475.27 -188.93l124.9 111.34c11.65,10.37 20.16,15.62 25.37,15.64 8.85,0.04 13.43,-9.39 13.74,-28.22 0.34,-21.34 -0.72,-35.91 -3.12,-43.65 -2.39,-7.82 -7.68,-13.74 -15.78,-17.68 -6.55,-3.24 -11.18,-6.64 -13.81,-10.3 -2.64,-3.66 -3.95,-8.35 -3.85,-14.16 0.23,-14.22 10.18,-23.28 29.7,-27.27 8.02,-1.7 21.92,-2.51 41.8,-2.41 25.61,0.11 43.3,1.76 53.06,4.84 15.55,4.84 23.14,13.81 22.93,27.08 -0.18,11.01 -6.65,19.23 -19.42,24.8 -5.15,2.15 -8.66,4.13 -10.51,5.76 -1.94,1.73 -3.54,4.24 -4.98,7.61 -4.78,11.17 -7.47,32.32 -8.14,63.55l-1.33 82.83c-0.2,12.67 -0.39,30.01 -0.57,52.04 -0.31,29.84 -2.48,51.34 -6.42,64.51 -4.78,16.46 -13.24,24.57 -25.31,24.61 -5.2,-0.11 -9.8,-1.17 -13.58,-3.44 -3.7,-2.19 -9.96,-7.33 -18.69,-15.27l-148.65 -135.65c-10.35,-9.5 -19.05,-14.31 -26,-14.34 -10.33,-0.05 -15.77,14.24 -16.22,42.86 -0.38,23.5 0.75,39.64 3.22,48.33 2.46,8.59 7.75,15.04 15.84,19.07 11.28,5.69 16.81,13 16.67,21.93 -0.38,23.59 -25.92,35.28 -76.63,35.04 -22.83,-0.1 -40.59,-3.22 -53.17,-9.26 -12.49,-6.13 -18.69,-14.66 -18.52,-25.67 0.09,-5.72 1.37,-10.06 3.76,-12.91 2.39,-2.85 7.83,-6.73 16.25,-11.63 8.07,-4.73 12.98,-13.04 14.91,-25.09 3.22,-21.85 5.2,-53.24 5.85,-94.26 0.7,-43.72 -1.4,-75.56 -6.11,-95.62 -1.8,-7.3 -4.05,-12.69 -6.86,-16.25 -2.89,-3.57 -7.53,-6.98 -14.08,-10.21 -7.57,-3.76 -12.81,-7.43 -15.8,-11 -2.89,-3.57 -4.3,-7.91 -4.22,-13.03 0.26,-16.22 14.41,-26.39 42.52,-30.52 9.49,-1.34 26.08,-1.96 49.87,-1.85 13.54,0.06 23.42,1.24 29.55,3.34 6.13,2.11 13.43,7 21.82,14.5zm454.44 -10.16l134.06 0.61c14.42,-0.45 27.65,-2.3 39.51,-5.63 5.14,-1.37 9.67,-2.04 13.57,-2.02 13.72,0.06 26.93,10.27 39.54,30.71 12.61,20.35 18.79,41.29 18.44,62.8 -0.24,14.75 -4.93,25.48 -13.98,32.2 -6.85,5.09 -15.06,7.56 -24.52,7.52 -9.03,-0.04 -16.8,-2.59 -23.32,-7.57 -6.52,-5.06 -12.9,-13.33 -19.22,-24.89 -5.39,-10.52 -9.71,-17.39 -12.87,-20.62 -3.16,-3.22 -7.04,-4.89 -11.65,-4.91 -6.25,-0.03 -10.81,2.64 -13.58,7.83 -2.78,5.28 -4.3,13.86 -4.5,25.91l-2.28 142.25c-0.23,14.57 1.16,25.24 4.09,31.85 2.94,6.61 8.58,11.66 17.04,15.34 9.14,3.86 15.24,7.62 18.49,11.1 3.33,3.48 4.9,8.26 4.8,14.42 -0.19,12.14 -8.67,21.21 -25.26,27.03 -16.59,5.82 -42.08,8.66 -76.37,8.59 -42.02,-0.28 -73.14,-3.89 -93.43,-10.93 -17.02,-5.8 -25.46,-15.12 -25.25,-28.04 0.11,-6.94 3.32,-12.3 9.46,-16.18 1.49,-0.86 7.6,-2.92 18.16,-6.07 6.45,-1.8 10.94,-5.33 13.54,-10.61 2.52,-5.19 4.68,-15.33 6.48,-30.16 1.52,-13.26 3.16,-34.6 4.85,-64.17 1.61,-29.57 2.62,-55.16 2.97,-76.84 0.24,-15.26 -0.8,-26.11 -3.04,-32.54 -2.24,-6.52 -6.09,-9.74 -11.56,-9.77 -6.6,-0.03 -13.1,4.72 -19.5,14.14 -11.65,17.3 -21.21,28.62 -28.59,34.22 -8.7,6.56 -17.17,9.81 -25.33,9.77 -9.12,-0.04 -16.62,-3.45 -22.41,-10.42 -5.88,-6.88 -8.69,-15.65 -8.52,-26.32 0.17,-10.5 2.7,-22.02 7.68,-34.66 4.98,-12.56 11.5,-24.15 19.66,-34.78 13.13,-17.29 26.03,-25.82 38.53,-25.76 3.39,0.02 7.28,0.55 11.7,1.53 9.09,1.95 16.62,3.2 22.43,3.92 5.89,0.72 12.57,1.09 20.21,1.13z"/>
   <path class="fil6" d="M6345.11 7740.6l130.67 0.6c26.48,0.12 45.77,-0.31 57.94,-1.39 12.17,-1.07 24.01,-3.27 35.62,-6.6 3.57,-0.94 6.36,-1.44 8.36,-1.44 8.86,0.04 16.59,4.76 23.21,14.33 10.95,15.49 16.21,34.08 15.86,55.94 -0.18,11.01 -2.66,19.68 -7.36,26.07 -4.79,6.31 -11.27,9.41 -19.34,9.37 -5.64,-0.03 -9.96,-1.18 -13.05,-3.44 -3.09,-2.27 -7.26,-7.49 -12.35,-15.41 -7.28,-11.39 -16.63,-19.07 -28.03,-22.94 -11.4,-3.87 -30.12,-5.86 -56.25,-5.98 -19.54,-0.09 -31.41,3.42 -35.77,10.33 -2.32,3.72 -3.7,8.66 -4.24,14.99 -0.44,6.24 -0.96,22.2 -1.37,47.96 -0.16,10.15 1.47,16.48 4.82,18.93 3.35,2.53 12.18,3.79 26.59,3.85 7.12,0.04 12.35,-1.42 15.61,-4.35 3.26,-3.02 5.43,-8.31 6.33,-15.85 1.37,-9.88 2.69,-16.56 4.06,-20.19 1.27,-3.64 3.67,-6.84 7.1,-9.51 3.61,-3.02 7.8,-4.56 12.58,-4.54 6.94,0.03 12.8,3.35 17.64,9.97 3.48,4.96 6.38,13.65 8.61,26.15 2.23,12.42 3.33,25.43 3.11,38.96 -0.43,26.8 -4.95,48.72 -13.56,65.77 -4.75,9.35 -11.77,13.91 -21.06,13.87 -5.81,-0.02 -9.79,-1.52 -11.91,-4.48 -2.12,-2.96 -3.76,-9.12 -4.83,-18.41 -2.21,-19.18 -13.26,-28.77 -33.06,-28.86 -7.64,-0.04 -12.89,2.28 -15.74,7.13 -2.94,4.85 -4.48,13.77 -4.69,26.78 -0.13,7.98 0.32,18.3 1.16,30.89 0.93,12.67 1.92,21 3.07,25.08 1.22,5.04 5.42,8.62 12.42,10.56 7,2.02 18.7,3.03 35.2,3.11 25.44,0.11 44.6,-3.09 57.64,-9.54 12.95,-6.44 23.65,-18.2 32.09,-35.33 4.93,-9.78 9.29,-16.35 13.17,-19.72 3.87,-3.37 8.85,-5.08 14.93,-5.05 7.12,0.03 12.98,3.18 17.57,9.36 4.59,6.27 6.72,14 6.57,23.28 -0.16,10.15 -2.97,22.89 -8.42,38.13 -5.54,15.24 -12.19,28.74 -20.02,40.59 -4,5.7 -7.28,9.51 -9.82,11.49 -2.63,1.9 -5.86,2.84 -9.77,2.91 -3.21,-0.1 -7.8,-0.56 -13.96,-1.63 -10.82,-2.04 -25.3,-3.41 -43.43,-4.02l-215.67 -0.98c-8.68,-0.04 -15.33,-1.98 -20.05,-5.81 -4.63,-3.84 -6.97,-9.22 -6.86,-16.17 0.08,-4.94 1.18,-8.5 3.3,-10.65 2.03,-2.16 6.77,-5 14.11,-8.35 5.07,-2.15 8.93,-4.82 11.42,-8.01 2.48,-3.29 4.47,-7.96 5.96,-14.2 5.96,-25.56 9.39,-60.07 10.08,-103.44 1.05,-65.4 -2.37,-106.61 -10.26,-123.83 -1.6,-3.39 -3.47,-5.74 -5.44,-7.14 -2.06,-1.31 -6.29,-2.98 -12.69,-4.83 -9.59,-2.99 -14.35,-9.43 -14.19,-19.41 0.09,-5.46 1.81,-10.23 5.09,-14.46 3.28,-4.24 7.58,-6.99 12.81,-8.35 6.62,-1.45 19.48,-2.17 38.5,-2.08zm461.53 348.99l-18.32 -0.08c-10.69,-0.05 -22.67,0.41 -35.89,1.4 -8.34,0.57 -14.08,0.89 -17.3,0.87 -11.37,-0.05 -20.62,-2.7 -27.65,-8.02 -7.04,-5.24 -10.49,-12.11 -10.35,-20.61 0.09,-5.9 1.73,-10.49 4.91,-13.77 3.18,-3.36 8.43,-5.94 15.58,-8 6.8,-1.61 11.36,-4.37 13.85,-8.18 2.41,-3.8 4.43,-11.17 5.91,-22.18 1.59,-12.74 3.2,-37.46 4.92,-74.23 1.63,-36.77 2.83,-73.28 3.41,-109.54 0.23,-14.22 -0.75,-23.69 -2.84,-28.46 -2.19,-4.69 -7.25,-8.53 -15.36,-11.43 -11.65,-4.48 -17.34,-12.05 -17.17,-22.72 0.13,-8.33 4.23,-14.81 12.38,-19.37 8.15,-4.65 19.39,-6.94 33.8,-6.87 4.78,0.02 10.33,0.13 16.84,0.34 14.23,0.58 24.56,0.89 30.98,0.93 24.22,0.11 51.67,-0.55 82.17,-1.97 6.43,-0.23 14.5,-0.37 24.23,-0.32 38.81,0.18 69.39,4.65 91.82,13.61 33.39,13.33 58.3,35.65 74.73,66.87 14.67,27.56 21.7,60.3 21.09,98.2 -0.31,19.17 -3.39,38.32 -9.35,57.56 -5.87,19.23 -13.69,35.85 -23.46,49.86 -20.08,28.36 -47.57,48.19 -82.31,59.56 -20.43,6.68 -42.19,9.96 -65.28,9.85l-30.81 -1.09 -26.38 -0.9c-20.57,-0.79 -38.62,-1.22 -54.16,-1.29zm57.81 -275.23l-3.15 196.72c-0.17,10.67 1.96,18.22 6.5,22.75 4.53,4.53 12.13,6.83 22.81,6.87 49.49,0.22 74.84,-37.31 76.04,-112.51 0.67,-41.55 -4.55,-73.75 -15.73,-96.61 -12.27,-25.3 -33.69,-38.06 -63.99,-38.2 -8.16,-0.04 -13.92,1.59 -17.26,4.78 -3.35,3.2 -5.09,8.57 -5.21,16.2z"/>
  </g>
  <path class="fil7 str0" d="M3280.82 5925.82c-1.35,-0.17 -2.81,-0.33 -4.41,-0.5 -19.46,-1.98 -20.28,4.02 -33.76,-8.62 -19.42,-16.21 -14.12,-47.91 -0.53,-68.04 12.56,-18.61 11.77,2.23 9.49,-31.05 -2.66,-38.88 -28.57,-124.36 -64.44,-144.15 -14.81,17.7 -19.8,57.67 -29.67,82.98 -27.06,69.38 -19.72,74.93 -56.09,109.27 -27.78,26.22 -53.61,62.88 -57.75,104.1 22.57,-19.44 31.69,-57.46 58.55,-87.3 4.57,-5.08 4.66,-4.69 8.44,-8.02 -10.28,85.5 26.93,154.24 72.44,207.43 54.61,63.81 55.29,51.38 -9.11,134.09 -7.27,9.34 -10.92,15.73 -17.23,19.69l-27.29 5.03c-16.51,-27.9 -17.02,-26.22 -17.59,-63.43 -0.55,-35.46 -5.08,-34.89 -18.63,-62.95 -8.2,-16.97 -37.84,-104.53 -50.95,-113.67 -21.06,27.8 -19.88,80.78 -27.11,119.22 -11.64,61.81 2.46,64.39 -0.59,118.26l-127.51 -6.09c-39.35,-50.15 19.42,-42.84 32.43,-167.1 19.52,-186.49 54.78,-222.63 -32.85,-211.44 -39.74,5.08 -127.92,-2.87 -164.45,-8.85 -38.2,-6.24 -65.88,-11.18 -102.55,-18.45 -101.53,-20.15 -44.94,-16.62 -89.79,-28.64 -0.24,28.23 17.31,64.7 21.44,104.43 3.69,35.38 9.5,70.22 13.57,104.54 5.71,48.15 5.31,123.01 18.78,158.96 9.28,24.78 3.52,23.59 7.78,45.25 -21.28,8.06 -108.79,16.3 -134.57,-1.07l4.32 -33.25c51.35,-39.62 -15.33,-227.93 -36.07,-276.43 -47.54,19.03 -146.93,123.55 -110.09,234.91 13.24,40.02 10.26,71.61 -38.82,68.02l-82.83 -4.84c-35.14,-25.64 -11.87,-55.56 6.35,-86.76 13.98,-23.95 18.7,-85.12 23.09,-114.09 12.32,-81.31 54.83,-123.6 68.93,-202.75 40.94,-229.83 46.48,-160.42 -51.19,-234.29 -51.4,-38.88 -69.95,23.06 -77.71,30.65 -15.9,15.56 -25.06,8.91 -42.01,18.33 5.02,35.08 35.74,42.36 30.78,98.63 -7.07,80.06 -81.47,137.47 -144.22,96.41 -36.12,-23.64 -32.94,-43.76 -56.13,-70.71 -31.22,4.61 -115.94,38.11 -146.59,17.83 9.99,-22.42 85.17,-11.32 134.08,-59.54 0.12,-33.21 -7.63,-55.2 -4.4,-97.46 6.95,-90.79 50.68,-150.53 100.11,-221.83 16.91,-24.38 21.55,-43.39 39.11,-69.59 60.68,-90.52 74.63,-104.23 217.82,-88.35 -5.9,21.51 -10.32,14.65 -24.29,33.13 -6.06,8.01 -13.08,18.41 -10.72,28.17 10.09,-3.17 31.37,-47.24 52.12,-58.11 15.91,-8.34 64.72,-20.2 83.61,-24.91 22.47,-5.59 68.78,-22.13 89.28,-10.03 17.77,10.48 27.1,47.5 41.06,65.11 17.14,21.62 130.54,55.44 167.04,57.5 74.86,4.22 140.93,5.94 210.63,20.19 179.72,36.73 261.79,86.34 285.21,263.29 8.3,62.72 72.02,93.52 88.4,232.22 0,0 23.01,32.63 7.08,104.65zm-758.54 -638.11c23.44,55.03 57.83,165.9 -0.85,204.16 -30.14,19.65 -82.8,14.45 -149.8,49.65 -21.64,11.37 -25.34,19.92 -43.63,29.92 -13.18,-10.94 -28.13,-29.84 -37.29,-39.54 21.17,4.28 20.78,13.64 38.2,21.93 104.43,-78.31 90.19,-43.72 167.76,-72.94 74.34,-28.01 16.78,-128.27 25.61,-193.17zm-447.67 336.43c18.73,21.7 31.02,73.31 4.3,109.76 -66.71,1.7 -64.21,-80.65 -4.3,-109.76z"/>
  <path class="fil8" d="M5610.31 5646.12c1.52,-5.71 21.14,-29.1 25.89,-34.25 2.74,3.59 2.74,5.66 4.61,9.69 2.41,5.17 12.15,23.81 12.76,27.89 -4.71,2.36 -15.04,7.19 -19.54,7.79 -6.54,0.88 -20.52,-6.74 -23.72,-11.12zm557.83 29.73l202.76 84.42 -21.52 51.15c-14.49,-4.93 -20.43,-6.13 -29.37,4.5 -12.93,15.38 -52.66,64.18 -60.35,75.61 -20.44,-8.51 -111.99,-47.81 -128.98,-52.93 -13.99,-4.21 -23.95,2.42 -33.12,6.33l31.75 -76.44 38.84 -92.64zm-228.96 -95.32l209.43 87.63 -17.86 42.45c-25.71,-7.51 -21.33,-6.53 -52.78,32.6 -14.44,17.97 -28.29,36.5 -43.23,54.01 -16.12,-4.57 -73.54,-30.52 -96.06,-39.16 -19.15,-7.35 -25.76,-8.02 -40.22,-0.91 -7.67,3.77 -16.2,11.81 -21.7,19.65 -4.79,6.83 -3.8,7.68 -6.85,7.26l-13.03 -5.86 82.3 -197.67zm-220.55 -70.08c6.74,-8.2 7.13,-12.99 17.1,-9.21 46.58,17.67 102,41.47 148.68,60.69 12.9,5.31 13.02,5.13 7.1,17.82 -3.58,7.69 -7.28,15.62 -10.88,23.3 -6.91,14.74 -14.2,32.33 -22,46.22 -57.14,-8.2 -66.87,51.51 -88.57,65.78l-81.26 -33.84c-0.22,-3.14 -26.96,-60.87 -29.15,-65.18 -1.89,-3.71 -2.79,-7.26 -4.66,-10.71 -1.59,-2.93 -3.94,-6.86 -5.31,-10.17l68.93 -84.7zm749.02 264.79c10.83,-12.17 3.14,-34.11 -6.23,-40.25 -11.35,-7.44 -37.74,-16.88 -51.6,-22.65l-210.76 -86.05c-35.24,-14.57 -70.67,-29.92 -106.09,-43.88 -105.24,-41.46 -212.51,-87.3 -317.55,-130.79 -17.51,-7.25 -35.46,-15.24 -53.06,-22.02 -15.82,-6.09 -28.09,8.01 -32.23,25.83l17.6 8.39 -153.96 170.09c-9.31,-1.83 -74.34,-23.99 -88.59,-28.8l-177.19 -58.73c-8.96,-2.97 -37.75,-13.6 -44.63,-13.85 -11.21,-0.42 -25.2,8.76 -29.95,23.23 4.74,2.09 4.95,0.14 -0.01,15.81 -3.87,0.83 -5.8,-0.13 -7.85,5.11l-4.78 20.89c-0.34,5.63 3.93,5.43 4.15,7.88l-12.25 45.69c-18.74,-7.23 -19.64,8.03 -24.02,24.44 -5.05,18.91 -7.47,21.78 10.44,31.39 -0.13,6.64 0.83,10.96 9.16,13.47 4.54,-1.85 5.69,-5.55 9.83,-5.89l14.27 6.03c-13.46,16.59 -24.35,28.82 -30.13,52.84 -4.55,18.93 -3.82,38.26 -0.11,53.54 24.34,100.28 158.16,118.16 208.51,32.1 15.13,-25.86 12.61,-36.32 15.9,-57.68l10.7 4.41c3.91,2.93 -2.73,16.78 3.56,24.74 3.82,4.84 22.84,11 29.87,13.94 123.86,51.75 250.85,103.09 375.3,154.07 40.6,16.63 32.24,16.08 51.27,-1.05l13.74 6.12c-14.11,16.35 -23.54,28.85 -29.84,52.54 -13.2,49.68 11.28,108.29 68.01,132.43 54.39,23.15 113.98,-1.93 140.8,-47.61 16.19,-27.59 11.86,-43.42 15.91,-57.54l11.47 4.81c0.52,9.64 2.85,13.33 14.6,18.22 41.2,17.18 97.98,39.17 139.88,55.04 22.35,8.47 13.93,5.48 25.07,2.9 7.56,-1.76 18.85,10.69 25.26,4.67 2.84,-2.67 5.84,-34.75 2.51,-42.04 -6.91,-15.16 -11.19,-4.81 -5.36,-26.06l12.76 -46.73c8.31,-2.53 7.72,-5.36 10.14,-14.75 2.15,-8.33 4.95,-11.83 -1.84,-16.11 7.55,-27.89 6.73,-34.72 -15.8,-49.69l85.39 -205.1c23.37,5.39 29.52,19.53 42.15,-8.16l35.61 14.78z"/>
  <path class="fil3" d="M53270.28 -11120.52c66.18,40.22 292.34,63.86 373.63,16.46 56.06,-32.69 165.67,-152.96 214.83,-209.92 -30.45,-50.49 -261.11,-242.69 -321.24,-297.64 -46.82,-42.79 -58.19,-69.98 -113.95,-102.31 -34.35,93.88 -164.63,509.92 -153.27,593.41z"/>
 </g>
</svg>
